<?xml version="1.0" encoding="UTF-8"?>
<svg xmlns="http://www.w3.org/2000/svg" xmlns:xlink="http://www.w3.org/1999/xlink" width="50px" height="50px" viewBox="0 0 50 50" version="1.1">
<g id="surface1">
<path style=" stroke:none;fill-rule:nonzero;fill:rgb(0%,0%,0%);fill-opacity:1;" d="M 22.9375 0.421875 C 16.675781 0.933594 10.289062 4.214844 6.304688 8.960938 C -0.121094 16.621094 -1.476562 26.910156 2.777344 35.765625 C 4.730469 39.832031 7.59375 43.125 11.320312 45.621094 C 22.777344 53.292969 38.230469 50.148438 45.785156 38.613281 C 53.199219 27.292969 50.109375 12.078125 38.84375 4.542969 C 35.25 2.140625 31.289062 0.757812 26.925781 0.40625 C 25.011719 0.257812 24.960938 0.257812 22.9375 0.421875 Z M 30.410156 5.695312 C 36.890625 6.316406 42.449219 9.613281 45.988281 14.980469 C 51.289062 22.980469 50.339844 33.730469 43.738281 40.632812 C 40.5625 43.953125 37.066406 45.878906 32.402344 46.867188 C 30.640625 47.234375 26.4375 47.207031 24.59375 46.800781 C 22.601562 46.367188 21.285156 45.917969 19.453125 45.023438 C 17.3125 43.96875 15.699219 42.816406 13.964844 41.078125 C 12.230469 39.34375 11.078125 37.730469 10.019531 35.589844 C 9.097656 33.703125 8.675781 32.484375 8.257812 30.503906 C 7.835938 28.59375 7.796875 24.445312 8.175781 22.574219 C 9.015625 18.4375 10.832031 14.96875 13.71875 11.984375 C 16.09375 9.53125 18.914062 7.742188 21.992188 6.722656 C 24.945312 5.734375 27.523438 5.421875 30.410156 5.695312 Z M 30.410156 5.695312 "/>
<path style=" stroke:none;fill-rule:nonzero;fill:rgb(0%,0%,0%);fill-opacity:1;" d="M 19.117188 13.84375 C 19.117188 14.046875 18.722656 17.488281 18.371094 20.402344 C 18.261719 21.367188 18.070312 22.953125 17.964844 23.929688 C 17.636719 26.84375 17.109375 31.398438 16.878906 33.351562 C 16.609375 35.617188 16.269531 38.53125 16.269531 38.664062 C 16.269531 38.734375 16.90625 38.773438 17.691406 38.773438 L 19.101562 38.773438 L 19.171875 38.328125 C 19.238281 37.949219 19.414062 36.441406 19.929688 31.65625 C 20.011719 30.910156 20.171875 29.5 20.28125 28.539062 C 20.582031 25.828125 20.863281 23.128906 20.878906 22.9375 C 20.878906 22.503906 21.203125 22.953125 22.371094 25.039062 C 23.683594 27.398438 24.160156 28.253906 26.992188 33.324219 C 27.914062 34.976562 28.726562 36.320312 28.796875 36.292969 C 28.917969 36.253906 29.878906 34.570312 33.785156 27.523438 C 35.128906 25.09375 36.320312 23.035156 36.414062 22.925781 C 36.632812 22.683594 36.671875 22.84375 36.875 24.808594 C 37.324219 29.136719 37.59375 31.535156 38.027344 35.371094 C 38.21875 37.039062 38.367188 38.488281 38.367188 38.597656 C 38.367188 38.746094 38.652344 38.773438 39.832031 38.746094 C 41.023438 38.707031 41.28125 38.664062 41.253906 38.503906 C 41.242188 38.394531 41.132812 37.445312 41.011719 36.402344 C 40.820312 34.585938 40.632812 33.039062 40.199219 29.285156 C 40.089844 28.347656 39.898438 26.761719 39.792969 25.757812 C 39.683594 24.757812 39.535156 23.414062 39.453125 22.777344 C 39.207031 20.703125 38.910156 18.125 38.773438 16.742188 C 38.613281 15.265625 38.410156 13.816406 38.328125 13.746094 C 38.300781 13.71875 38.109375 14.019531 37.90625 14.410156 C 37.691406 14.792969 37.363281 15.386719 37.175781 15.726562 C 37 16.066406 36.375 17.191406 35.792969 18.234375 C 33.785156 21.867188 29.648438 29.351562 29.257812 30.058594 C 29.027344 30.449219 28.808594 30.777344 28.769531 30.777344 C 28.714844 30.777344 28.335938 30.152344 27.902344 29.378906 C 27.480469 28.621094 26.179688 26.261719 25.011719 24.132812 C 23.835938 22.003906 22.695312 19.929688 22.464844 19.523438 C 22.234375 19.117188 21.449219 17.679688 20.714844 16.335938 C 19.332031 13.828125 19.117188 13.488281 19.117188 13.84375 Z M 19.117188 13.84375 "/>
</g>
</svg>
